<svg width="1031" height="1031" fill="none" xmlns="http://www.w3.org/2000/svg"><path d="M330.072 2.54c10.327 3.829 54.99 17.56 72.287 22.182 24.268 6.602 51.892 11.752 74.095 13.996 19.62 1.849 28.656 3.962 155.03 35.915 73.836 18.486 136.313 34.595 138.766 35.651 2.452 1.056 8.261 4.49 12.908 7.526 4.647 3.169 9.94 6.735 11.876 7.923 8.132 5.017 12.65 24.163 17.168 72.754 3.227 34.066 3.743 37.499 7.1 44.233l3.614 7.395 2.065 49.383c1.162 27.2 2.324 52.42 2.453 55.985l.258 6.602 21.944 5.017C945.675 389.021 1031 422.427 1031 438.008c0 7.394-23.88 15.581-64.542 21.786-32.4 5.018-53.441 6.338-109.722 6.866l-56.152.529-1.42 4.357c-.903 2.245-2.839 13.732-4.388 25.352-5.164 38.952-8.907 54.268-17.943 72.226l-5.163 10.167 2.452 10.431c5.293 22.843 12.392 35.651 32.013 57.965l11.876 13.469-21.041 16.108c-53.441 41.197-94.619 77.508-142.767 125.967-64.026 64.567-120.178 130.059-179.557 209.679-12.908 17.43-13.553 18.09-18.2 18.09-11.489 0-17.169-10.43-36.66-68.661-7.45-22.398-9.735-55.015-23.179-67.593-6.621-6.194-15.948 1.224-29.932 0-36.27-3.172-59.865 0-82.315-22.747-12.733-12.903-39.091-53.312-31.868-76.691l-1.291-10.827c-1.936-17.297-4.388-21.919-17.426-31.954 0 0-3.614-1.267-5.938-4.887-2.323-3.62-2.323-4.779-2.323-12.361 0-7.583-3.602-9.075 4.789-15.166.108-.11-5.913-2.73-7.483-7.582-1.466-4.527-1.03-11.243 1.016-14.807 4.13-13.204 4.776-25.873 3.614-41.058-.516-6.866-1.162-12.544-1.42-12.544-.387 0-2.324.925-4.389 1.981-11.747 6.206-22.719 5.414-50.085-3.433-17.942-5.81-23.622-9.771-29.044-20.334-2.969-6.074-3.485-17.694-1.032-26.54.903-3.433 16.652-28.125 42.339-66.02l40.791-60.607-3.356-26.408c-4.131-30.633-4.131-33.802-1.162-51.892 1.291-7.394 2.065-13.468 1.807-13.468s-9.036-1.452-19.491-3.169c-45.309-7.79-81.065-10.959-141.864-12.675-25.817-.793-49.31-1.849-52.15-2.509C1.81 357.463-.9 354.822.26 351.125c3.873-12.543 65.704-19.806 188.334-22.182l47.504-.793 3.743-8.45c5.551-12.676 10.069-28.521 12.779-44.63 2.066-12.147 7.745-66.416 7.745-73.546 0-1.188 2.066-5.282 4.647-9.111 4.518-6.734 4.906-8.186 7.745-29.577 4.648-34.991 6.713-59.55 8.262-93.088 1.678-37.764 1.549-37.236 7.229-48.723 5.292-10.827 11.359-16.505 20.395-19.278 8.261-2.509 12.779-2.377 21.428.792Z" fill="#000"/></svg>